<svg xmlns="http://www.w3.org/2000/svg" x="0px" y="0px"
width="30" height="30"
viewBox="0 0 172 172"
style=" fill:#000000;"><g fill="none" fill-rule="nonzero" stroke="none" stroke-width="1" stroke-linecap="butt" stroke-linejoin="miter" stroke-miterlimit="10" stroke-dasharray="" stroke-dashoffset="0" font-family="none" font-weight="none" font-size="none" text-anchor="none" style="mix-blend-mode: normal"><path d="M0,172v-172h172v172z" fill="none"></path><g fill="#384a60"><path d="M86,17.2c-19.00027,0 -34.4,15.39973 -34.4,34.4v5.73333c0,19.00027 15.39973,34.4 34.4,34.4c19.00027,0 34.4,-15.39973 34.4,-34.4v-5.73333c0,-19.00027 -15.39973,-34.4 -34.4,-34.4zM85.9888,108.93333c-22.96773,0 -52.43707,12.42324 -60.91667,23.44844c-5.24027,6.81693 -0.25182,16.68489 8.34245,16.68489h105.15964c8.59427,0 13.58271,-9.86796 8.34245,-16.68489c-8.4796,-11.01947 -37.96013,-23.44844 -60.92786,-23.44844z"></path></g></g></svg>